<svg width="64" height="64" viewBox="0 0 64 64" fill="none" xmlns="http://www.w3.org/2000/svg">
<path d="M1.22128 3.52224C1.22128 2.06645 2.40144 0.886292 3.85723 0.886292H60.6142C62.07 0.886292 63.2502 2.06645 63.2502 3.52224V60.2792C63.2502 61.735 62.07 62.9152 60.6142 62.9152H3.85723C2.40144 62.9152 1.22128 61.735 1.22128 60.2792V3.52224ZM3.4925 3.86948C3.4925 3.47626 3.81127 3.1575 4.20449 3.1575H60.267C60.6602 3.1575 60.979 3.47627 60.979 3.86948V59.932C60.979 60.3252 60.6602 60.644 60.267 60.644H4.20449C3.81127 60.644 3.4925 60.3252 3.4925 59.932V3.86948ZM4.20449 2.6575C3.53513 2.6575 2.9925 3.20012 2.9925 3.86948V59.932C2.9925 60.6013 3.53513 61.144 4.20449 61.144H60.267C60.9363 61.144 61.479 60.6013 61.479 59.932V3.86948C61.479 3.20012 60.9363 2.6575 60.267 2.6575H4.20449Z" stroke="#013C4C" stroke-width="0.5" stroke-linecap="round" stroke-linejoin="round"/>
<path d="M32.5156 8.56937H45.6675L18.804 45.7864M31.9558 55.761L18.804 55.761L45.6674 18.544" stroke="#013C4C" stroke-width="2" stroke-linecap="round" stroke-linejoin="round"/>
</svg>
