<svg width="63" height="63" viewBox="0 0 63 63" fill="none" xmlns="http://www.w3.org/2000/svg">
<path d="M0.25 2.88595C0.25 1.43015 1.43015 0.25 2.88595 0.25H59.6429C61.0987 0.25 62.2789 1.43015 62.2789 2.88595V59.6429C62.2789 61.0987 61.0987 62.2789 59.6429 62.2789H2.88595C1.43015 62.2789 0.25 61.0987 0.25 59.6429V2.88595ZM2.52122 3.23319C2.52122 2.83997 2.83999 2.52121 3.2332 2.52121H59.2957C59.6889 2.52121 60.0077 2.83997 60.0077 3.23319V59.2957C60.0077 59.6889 59.6889 60.0077 59.2957 60.0077H3.2332C2.83999 60.0077 2.52122 59.6889 2.52122 59.2957V3.23319ZM3.2332 2.02121C2.56385 2.02121 2.02122 2.56383 2.02122 3.23319V59.2957C2.02122 59.965 2.56384 60.5077 3.2332 60.5077H59.2957C59.9651 60.5077 60.5077 59.965 60.5077 59.2957V3.23319C60.5077 2.56383 59.9651 2.02121 59.2957 2.02121H3.2332Z" stroke="#64FFDA" stroke-width="0.5" stroke-linecap="round" stroke-linejoin="round"/>
<path d="M31.5443 7.93307H44.6962L17.8327 45.1501M30.9845 55.1247L17.8327 55.1247L44.6961 17.9077" stroke="#64FFDA" stroke-width="2" stroke-linecap="round" stroke-linejoin="round"/>
</svg>
